<svg xmlns="http://www.w3.org/2000/svg" width="189.64" height="32.716" viewBox="0 0 189.64 32.716">
  <g id="Page-1" transform="translate(-0.145 36.221)">
    <g id="Artboard" transform="translate(0.145 -41.52)">
      <g id="Group-3" transform="translate(0 5.298)">
        <g id="logo" transform="translate(0 0)">
          <g id="Group-2">
            <g id="Group">
              <path id="Path-2" d="M49.238,3.621V20.68H51.26V.13h-20.1V2.149h16.69L30.106,20.215,20.454,10.053l-20,21.056a1.4,1.4,0,0,0-.206.281,1.13,1.13,0,0,0-.1.356.938.938,0,0,0,0,.208c.007.046.011.072.021.114.034.117.045.145.047.152a1.025,1.025,0,0,0,.194.308,1.054,1.054,0,0,0,.271.2.967.967,0,0,0,.429.114,1.393,1.393,0,0,0,.246-.02,1.275,1.275,0,0,0,.235-.078c.04-.021.11-.063.12-.069a1.289,1.289,0,0,0,.139-.11l18.6-19.586,9.622,10.13Z" transform="translate(-0.145 -0.13)" fill="#69b0fe" fill-rule="evenodd"/>
              <ellipse id="Oval-4" cx="1.515" cy="1.512" rx="1.515" ry="1.512" transform="translate(18.652 19.383)" stroke="#000" stroke-width="1" opacity="0.65"/>
            </g>
            <path id="A-VALUE" d="M547.017,50.312l-2.655,7.219h-1.746l9.31-24.452h1.637l9.31,24.452h-1.746l-2.655-7.219Zm7.492-10.267-1.746-5.152h-.073l-1.782,5.224L547.6,48.861h10.292Zm17.05,6.6V47.99h-8.51V46.648Zm8.431,3.737,1.818,5.406h.073l1.782-5.333,6.619-17.378h1.746l-9.31,24.452h-1.709L571.7,33.079h1.746Zm12.613-.073-2.655,7.219H588.2l9.31-24.452h1.636l9.31,24.452h-1.745l-2.655-7.219ZM600.1,40.045l-1.746-5.152h-.073L596.5,40.117l-3.309,8.743h10.292Zm10.5-6.966h1.709V55.971h12.183v1.56H610.6Zm25.014,24.742a10.55,10.55,0,0,1-3.583-.58,6.883,6.883,0,0,1-2.763-1.814,8.522,8.522,0,0,1-1.782-3.084,13.644,13.644,0,0,1-.636-4.426V33.079h1.709V47.954q0,4.39,1.892,6.349a7.787,7.787,0,0,0,10.329,0q1.891-1.959,1.89-6.349V33.079h1.71V47.917a13.679,13.679,0,0,1-.636,4.426,8.563,8.563,0,0,1-1.782,3.084,6.894,6.894,0,0,1-2.764,1.814A10.547,10.547,0,0,1,635.614,57.821ZM648.7,33.079H663.03V34.6H650.411v9.578H662.23V45.7H650.411v10.34h12.837v1.488H648.7Z" transform="translate(-473.607 -28.888)" fill="#5b5959" fill-rule="evenodd"/>
          </g>
        </g>
      </g>
    </g>
  </g>
</svg>
