<svg xmlns="http://www.w3.org/2000/svg" width="82.886" height="16.615" viewBox="0 0 82.886 16.615">
  <g id="Page-1" transform="translate(-0.145 41.52)">
    <g id="Artboard" transform="translate(0.145 -41.52)">
      <g id="Group-3" transform="translate(0 2.316)">
        <g id="logo" transform="translate(0 0)">
          <g id="Group-2">
            <g id="Group">
              <path id="Path-2" d="M21.6,1.656V9.112h.884V.13H13.7v.882H21l-7.758,7.9L9.022,4.467.279,13.67a.613.613,0,0,0-.09.123.494.494,0,0,0-.042.156.41.41,0,0,0,0,.091c0,.02,0,.031.009.05.015.051.019.063.021.067a.448.448,0,0,0,.085.135.461.461,0,0,0,.119.089.423.423,0,0,0,.188.05.609.609,0,0,0,.107-.009.557.557,0,0,0,.1-.034c.018-.009.048-.027.052-.03a.563.563,0,0,0,.061-.048l8.13-8.56,4.206,4.427Z" transform="translate(-0.145 -0.13)" fill="#69b0fe" fill-rule="evenodd"/>
              <ellipse id="Oval-4" cx="0.662" cy="0.661" rx="0.662" ry="0.661" transform="translate(8.152 8.472)" stroke="#000" stroke-width="1" opacity="0.65"/>
            </g>
            <path id="A-VALUE" d="M544.54,40.611l-1.16,3.155h-.763l4.069-10.687h.715l4.069,10.687h-.763l-1.16-3.155Zm3.274-4.487-.763-2.252h-.032l-.779,2.283-1.446,3.821h4.5Zm7.452,2.886V39.6h-3.719V39.01Zm3.685,1.633.795,2.363h.032l.779-2.331,2.893-7.6h.763l-4.069,10.687H559.4l-4.069-10.687h.763Zm5.513-.032-1.16,3.155h-.763l4.069-10.687h.715L571.4,43.767h-.763l-1.16-3.155Zm3.274-4.487-.763-2.252h-.032l-.779,2.283-1.446,3.821h4.5Zm4.591-3.044h.747V43.085H578.4v.682h-6.072Zm10.933,10.814a4.611,4.611,0,0,1-1.566-.254,3.008,3.008,0,0,1-1.208-.793,3.725,3.725,0,0,1-.779-1.348,5.963,5.963,0,0,1-.278-1.934V33.079h.747v6.5a3.9,3.9,0,0,0,.827,2.775,3.4,3.4,0,0,0,4.514,0,3.9,3.9,0,0,0,.826-2.775v-6.5h.747v6.485a5.98,5.98,0,0,1-.278,1.934,3.743,3.743,0,0,1-.779,1.348,3.014,3.014,0,0,1-1.208.793A4.61,4.61,0,0,1,583.264,43.893Zm5.72-10.814h6.263v.666h-5.516v4.186H594.9V38.6h-5.166v4.519h5.611v.65h-6.358Z" transform="translate(-512.455 -31.247)" fill="#5b5959" fill-rule="evenodd"/>
          </g>
        </g>
      </g>
      <path id="บริษัทเอ-แวลลูจำกัด--" d="M1288.7,116.164a.318.318,0,0,0,.247-.088.344.344,0,0,0,.08-.241v-.792h.169v.792a.467.467,0,0,1-.126.351.622.622,0,0,1-.741,0,.468.468,0,0,1-.126-.351v-.792h.169v.792a.345.345,0,0,0,.08.241A.318.318,0,0,0,1288.7,116.164Zm1.255,0a.389.389,0,0,0,.236-.06.178.178,0,0,0,.08-.147.144.144,0,0,0-.029-.091.281.281,0,0,0-.076-.067.547.547,0,0,0-.106-.05c-.04-.014-.079-.027-.119-.039a1.327,1.327,0,0,1-.15-.051.513.513,0,0,1-.123-.071.286.286,0,0,1-.113-.242.276.276,0,0,1,.121-.239.562.562,0,0,1,.33-.086.948.948,0,0,1,.207.022.719.719,0,0,1,.174.06l-.042.131a.674.674,0,0,0-.147-.052.754.754,0,0,0-.173-.019.414.414,0,0,0-.227.051.153.153,0,0,0-.078.131.136.136,0,0,0,.023.08.227.227,0,0,0,.062.059.45.45,0,0,0,.09.044c.034.013.071.025.109.037q.093.029.173.062a.558.558,0,0,1,.137.079.339.339,0,0,1,.089.108.312.312,0,0,1,.032.147.308.308,0,0,1-.115.251.56.56,0,0,1-.357.093,1.051,1.051,0,0,1-.229-.023.6.6,0,0,1-.176-.066l.042-.131a.6.6,0,0,0,.158.057A.886.886,0,0,0,1289.951,116.166Zm-.531-1.3v-.138h.945v.138Zm1.867,1.294a.319.319,0,0,0,.247-.088.345.345,0,0,0,.08-.241v-.209h-.3v-.145h.3v-.438h.169v.438h.185l-.038.145h-.147v.209a.467.467,0,0,1-.126.351.622.622,0,0,1-.741,0,.467.467,0,0,1-.126-.351v-.792h.169v.792a.344.344,0,0,0,.08.241A.318.318,0,0,0,1291.287,116.164Zm.28-1.294c-.141,0-.211-.063-.211-.189v-.087h.16v.067a.063.063,0,0,0,.071.071h.532v.138Zm1.522.612a.377.377,0,0,0-.061-.238.211.211,0,0,0-.174-.076.446.446,0,0,0-.137.021.506.506,0,0,0-.122.058.6.6,0,0,0-.1.085.51.51,0,0,0-.078.1v.856h-.169v-1.245h.158l.011.2a.752.752,0,0,1,.086-.081.619.619,0,0,1,.1-.069.594.594,0,0,1,.121-.048.515.515,0,0,1,.138-.018.362.362,0,0,1,.3.121.515.515,0,0,1,.1.337v.807h-.169Zm.6.807v-1.245h.169v1.245Zm.784-.565a.068.068,0,0,0-.051.021.082.082,0,0,0-.02.059v.062q0,.3.345.3a.364.364,0,0,0,.291-.119.579.579,0,0,0,.1-.381.569.569,0,0,0-.1-.369.359.359,0,0,0-.294-.127.72.72,0,0,0-.251.041.754.754,0,0,0-.194.1l-.056-.125a.568.568,0,0,1,.091-.06.878.878,0,0,1,.118-.052.925.925,0,0,1,.139-.038.811.811,0,0,1,.155-.014.516.516,0,0,1,.42.173.722.722,0,0,1,.145.476.7.7,0,0,1-.141.474.526.526,0,0,1-.419.162.563.563,0,0,1-.387-.115.419.419,0,0,1-.127-.328V115.8a.211.211,0,0,1,.059-.163.228.228,0,0,1,.161-.054h.2v.145Zm1.669-.107v.133h-.569v-.133Zm.328.672v-1.245h.165v1.245Zm.436,0v-1.245h.165v1.245Zm.55-.231a.789.789,0,0,0,.167.077.629.629,0,0,0,.2.03.349.349,0,0,0,.279-.12.563.563,0,0,0,.1-.374.606.606,0,0,0-.1-.379.341.341,0,0,0-.285-.123.608.608,0,0,0-.2.031.769.769,0,0,0-.166.082l-.04-.136a.874.874,0,0,1,.192-.087.737.737,0,0,1,.228-.036.491.491,0,0,1,.4.168.877.877,0,0,1-.006.953.515.515,0,0,1-.41.165.766.766,0,0,1-.225-.03.681.681,0,0,1-.178-.083Zm2.043.231v-.614h-.316a.493.493,0,0,0-.267.062.222.222,0,0,0-.1.2.2.2,0,0,0,.072.173.275.275,0,0,0,.172.056.516.516,0,0,0,.1-.01.379.379,0,0,0,.088-.028l.029.138a.544.544,0,0,1-.107.029.723.723,0,0,1-.127.011.532.532,0,0,1-.157-.022.348.348,0,0,1-.126-.068.309.309,0,0,1-.083-.115.4.4,0,0,1-.03-.162.365.365,0,0,1,.136-.3.659.659,0,0,1,.414-.108h.3v-.04a.363.363,0,0,0-.072-.241.309.309,0,0,0-.248-.086.711.711,0,0,0-.237.038.785.785,0,0,0-.188.093l-.056-.12a.635.635,0,0,1,.087-.053.858.858,0,0,1,.115-.049.9.9,0,0,1,.137-.036.859.859,0,0,1,.154-.013.477.477,0,0,1,.356.125.464.464,0,0,1,.122.34v.8Zm1.356,0v-.614h-.316a.492.492,0,0,0-.267.062.222.222,0,0,0-.1.2.2.2,0,0,0,.072.173.275.275,0,0,0,.172.056.516.516,0,0,0,.1-.01.382.382,0,0,0,.088-.028l.029.138a.54.54,0,0,1-.107.029.726.726,0,0,1-.127.011.533.533,0,0,1-.157-.022.347.347,0,0,1-.125-.068.311.311,0,0,1-.083-.115.4.4,0,0,1-.03-.162.365.365,0,0,1,.136-.3.659.659,0,0,1,.414-.108h.3v-.04a.363.363,0,0,0-.072-.241.31.31,0,0,0-.248-.086.712.712,0,0,0-.237.038.785.785,0,0,0-.188.093l-.055-.12a.635.635,0,0,1,.087-.053.851.851,0,0,1,.115-.049.892.892,0,0,1,.137-.036.858.858,0,0,1,.153-.013.477.477,0,0,1,.356.125.464.464,0,0,1,.122.34v.8Zm-.107.589a.308.308,0,0,1-.2-.059.209.209,0,0,1-.069-.168v-.067h-.116v-.138h.274v.162a.2.2,0,0,0,.024.115.145.145,0,0,0,.182,0,.2.2,0,0,0,.025-.115v-.162h.16v.2a.207.207,0,0,1-.07.168A.312.312,0,0,1,1300.75,116.878Zm.931-.589-.125-.514a.057.057,0,0,0-.06-.051h-.084v-.145h.1a.231.231,0,0,1,.137.034.206.206,0,0,1,.068.128l.093.4h.031a.279.279,0,0,0,.134-.034.357.357,0,0,0,.115-.1.514.514,0,0,0,.08-.163.762.762,0,0,0,.03-.225.5.5,0,0,0-.1-.345.379.379,0,0,0-.292-.109.622.622,0,0,0-.239.044.766.766,0,0,0-.19.111l-.053-.131a.815.815,0,0,1,.215-.12.726.726,0,0,1,.266-.049.675.675,0,0,1,.246.041.461.461,0,0,1,.177.119.507.507,0,0,1,.107.189.82.82,0,0,1,.036.251.853.853,0,0,1-.04.268.654.654,0,0,1-.112.21.507.507,0,0,1-.172.138.494.494,0,0,1-.22.049Zm.619-1.383a.214.214,0,0,1-.082-.016.19.19,0,0,1-.066-.044.224.224,0,0,1-.044-.068.216.216,0,0,1,0-.167.224.224,0,0,1,.044-.068.2.2,0,0,1,.148-.062.208.208,0,0,1,.151.061.2.2,0,0,1,.062.152.2.2,0,0,1-.062.151A.21.21,0,0,1,1302.3,114.9Zm0-.111a.1.1,0,0,0,.071-.029.1.1,0,0,0,.029-.073.1.1,0,0,0-.029-.072.1.1,0,0,0-.071-.028.094.094,0,0,0-.067.028.1.1,0,0,0-.029.072.1.1,0,0,0,.029.073A.092.092,0,0,0,1302.3,114.794Zm.958,1.495v-.807a.351.351,0,0,0-.068-.237.257.257,0,0,0-.2-.077.522.522,0,0,0-.2.039.658.658,0,0,0-.159.09l-.044-.127a.651.651,0,0,1,.079-.053.635.635,0,0,1,.1-.047.874.874,0,0,1,.116-.033.567.567,0,0,1,.121-.013.409.409,0,0,1,.323.12.492.492,0,0,1,.107.338v.807Zm1.42,0V115.5a.337.337,0,0,0-.087-.25.344.344,0,0,0-.251-.086.442.442,0,0,0-.23.059.326.326,0,0,0-.139.152l.18.165a.2.2,0,0,0-.127.2v.545h-.169v-.52a.272.272,0,0,1,.032-.131.2.2,0,0,1,.092-.089l-.187-.158a.45.45,0,0,1,.068-.136.5.5,0,0,1,.12-.118.647.647,0,0,1,.163-.082.6.6,0,0,1,.2-.031.63.63,0,0,1,.22.036.414.414,0,0,1,.255.252.549.549,0,0,1,.032.192v.785Zm-.078-1.419q-.211,0-.211-.189v-.087h.16v.067a.063.063,0,0,0,.071.071h.532v.138Zm1.54,1.419v-.747a.534.534,0,0,0-.02-.149.321.321,0,0,0-.062-.119.289.289,0,0,0-.106-.078.372.372,0,0,0-.15-.028.432.432,0,0,0-.183.037.348.348,0,0,0-.131.1.469.469,0,0,0-.079.162.771.771,0,0,0-.027.21.69.69,0,0,0,.031.221.441.441,0,0,0,.08.147.3.3,0,0,0,.11.082.312.312,0,0,0,.121.026.429.429,0,0,0,.081-.007.377.377,0,0,0,.068-.02l.031.133a.392.392,0,0,1-.086.028.5.5,0,0,1-.1.01.494.494,0,0,1-.188-.037.439.439,0,0,1-.16-.113.573.573,0,0,1-.112-.193.811.811,0,0,1-.042-.277.831.831,0,0,1,.039-.258.612.612,0,0,1,.115-.209.547.547,0,0,1,.183-.14.572.572,0,0,1,.248-.051.58.58,0,0,1,.228.041.441.441,0,0,1,.16.112.45.45,0,0,1,.094.166.661.661,0,0,1,.03.2v.745Zm0,0v-.747a.534.534,0,0,0-.02-.149.321.321,0,0,0-.062-.119.289.289,0,0,0-.106-.078.372.372,0,0,0-.15-.028.432.432,0,0,0-.183.037.348.348,0,0,0-.131.1.469.469,0,0,0-.079.162.771.771,0,0,0-.027.21.69.69,0,0,0,.031.221.441.441,0,0,0,.08.147.3.3,0,0,0,.11.082.312.312,0,0,0,.121.026.429.429,0,0,0,.081-.007.377.377,0,0,0,.068-.02l.031.133a.392.392,0,0,1-.086.028.5.5,0,0,1-.1.01.494.494,0,0,1-.188-.037.439.439,0,0,1-.16-.113.573.573,0,0,1-.112-.193.811.811,0,0,1-.042-.277.831.831,0,0,1,.039-.258.612.612,0,0,1,.115-.209.547.547,0,0,1,.183-.14.572.572,0,0,1,.248-.051.58.58,0,0,1,.228.041.441.441,0,0,1,.16.112.45.45,0,0,1,.094.166.661.661,0,0,1,.03.2v.745Z" transform="translate(-1223.477 -114.48)" fill="silver"/>
    </g>
  </g>
</svg>
