<svg xmlns="http://www.w3.org/2000/svg" xmlns:xlink="http://www.w3.org/1999/xlink" width="24" height="24" viewBox="0 0 24 24">
  <defs>
    <clipPath id="clip-path">
      <rect width="24" height="24" fill="none"/>
    </clipPath>
  </defs>
  <g id="Repeat_Grid_143" data-name="Repeat Grid 143" clip-path="url(#clip-path)">
    <g transform="translate(-968 -579)">
      <path id="Path_180" data-name="Path 180" d="M0,0H24V24H0Z" transform="translate(968 579)" fill="none"/>
      <g id="_3901" data-name="3901" transform="translate(970 1044.092)">
        <path id="Path_178" data-name="Path 178" d="M6.27-460.931c-.332.148-.406.289-.781,1.41s-.437,1.238-.777,1.418c-.156.082-.215.086-1.684.106a5.6,5.6,0,0,0-1.723.1,2.15,2.15,0,0,0-1.242,1.34c-.055.191-.062.742-.062,5.063a50.449,50.449,0,0,0,.062,5.059A2.111,2.111,0,0,0,1.5-445.045c.289.078,16.7.078,16.992,0a2.111,2.111,0,0,0,1.441-1.391A50.449,50.449,0,0,0,20-451.494c0-4.32-.008-4.871-.062-5.062A2.15,2.15,0,0,0,18.7-457.9a5.6,5.6,0,0,0-1.723-.1c-1.469-.019-1.527-.023-1.684-.106-.34-.18-.406-.3-.777-1.418a3.582,3.582,0,0,0-.484-1.184c-.289-.32,0-.3-4.027-.3C6.625-461.006,6.418-461,6.27-460.931Zm4.652,4.047a5.092,5.092,0,0,1,3.727,3.106,5.507,5.507,0,0,1,.258,2.59,5.009,5.009,0,0,1-3.285,3.887,4.221,4.221,0,0,1-1.621.262,4.221,4.221,0,0,1-1.621-.262,5.009,5.009,0,0,1-3.285-3.887,5.507,5.507,0,0,1,.258-2.59,5.094,5.094,0,0,1,3.164-2.961,5.39,5.39,0,0,1,1.074-.219A6.718,6.718,0,0,1,10.922-456.885Zm6.711,1.012a.674.674,0,0,1,.055,1.125.562.562,0,0,1-.391.09.562.562,0,0,1-.57-.3.724.724,0,0,1,.039-.746A.659.659,0,0,1,17.633-455.873Z" transform="translate(0 0)" fill="#fff"/>
        <path id="Path_179" data-name="Path 179" d="M181.617-307.485a3.556,3.556,0,0,0-1.133.379,4.119,4.119,0,0,0-.609.5,2.073,2.073,0,0,0-.555.762A2.838,2.838,0,0,0,179-304.5a3.007,3.007,0,0,0,2.207,2.918,3.466,3.466,0,0,0,1.6,0,3.007,3.007,0,0,0,2.207-2.918,2.813,2.813,0,0,0-.313-1.328,3.064,3.064,0,0,0-1.414-1.406A3.418,3.418,0,0,0,181.617-307.485Z" transform="translate(-172.008 -147.505)" fill="#fff"/>
      </g>
    </g>
  </g>
</svg>
