<svg id="account-box-fill_1_" data-name="account-box-fill (1)" xmlns="http://www.w3.org/2000/svg" width="16" height="16" viewBox="0 0 16 16">
  <path id="Path_169" data-name="Path 169" d="M0,0H16V16H0Z" fill="none"/>
  <path id="Path_170" data-name="Path 170" d="M3,4.108A1.108,1.108,0,0,1,4.108,3h7.783A1.108,1.108,0,0,1,13,4.108v7.783A1.108,1.108,0,0,1,11.892,13H4.108A1.108,1.108,0,0,1,3,11.892Zm1.865,7.225h6.383a3.889,3.889,0,0,0-6.383,0ZM8,8.556A1.944,1.944,0,1,0,6.056,6.611,1.944,1.944,0,0,0,8,8.556Z" fill="#4dabf5"/>
</svg>
